# xmcd
#
# Track frame offsets:
#	150
#	1725
#	16934
#	34435
#	46313
#
# Disc length: 805 seconds
#
# Revision: 0
# Processed by: cddbd v1.5.1PL0 Copyright (c) Steve Scherf et al.
# Submitted via: dBpowerAMP V4.0
#
DISCID=30032305
DTITLE=Those Poor Bastards - Country Bullshit
DYEAR=2004
DGENRE=Country
TTITLE0=Those Poor Bastards - Country Bullshit - 01 - Raw and Bleeding
TTITLE1=Those Poor Bastards - Country Bullshit - 02 - The Accident
TTITLE2=Those Poor Bastards - Country Bullshit - 03 - Black Dog Yodel
TTITLE3=Those Poor Bastards - Country Bullshit - 04 - Pills I Took
TTITLE4=Those Poor Bastards - Country Bullshit - 05 - Radio Country
EXTD=
EXTT0=
EXTT1=
EXTT2=
EXTT3=
EXTT4=
PLAYORDER=
